#!OML:ASF F:\VICON\USERDATA\INSTALL\rory3\rory3.ASF
:FULLY-SPECIFIED
:DEGREES
1
root 0.0153558 18.0056 -30.6689 4.50125 -1.52943 -5.29441
lowerback 16.6573 0.623915 2.31726
upperback 1.63997 1.27324 0.345768
thorax -7.54311 0.547018 -1.23472
lowerneck -1.8004 0.193585 -0.370682
upperneck -11.6206 0.265701 0.0867618
head -3.4216 0.146142 0.0856841
rclavicle 3.47873e-015 -5.56597e-015
rhumerus -42.1828 17.6745 -91.1278
rradius 92.5313
rwrist -1.77244
rhand -33.3092 33.9905
rfingers 7.12502
rthumb -6.51271 4.11061
lclavicle 3.47873e-015 -5.56597e-015
lhumerus -51.135 -8.92592 93.2776
lradius 108.917
lwrist 26.7636
lhand -38.9671 8.85134
lfingers 7.12502
lthumb -11.9719 38.489
rfemur 5.71516 3.32559 29.9687
rtibia 77.1329
rfoot 27.3464 -11.6067
rtoes 20.1413
lfemur -29.6167 2.8784 -17.5846
ltibia 29.7365
lfoot 0.676798 -4.79072
ltoes -8.79407
2
root 0.0242465 17.8811 -30.1748 4.07177 -0.793788 -4.88041
lowerback 17.0795 0.282084 1.9242
upperback 1.75822 0.752955 0.268076
thorax -7.67094 0.30618 -0.980861
lowerneck -1.92248 0.206817 -0.467365
upperneck -11.469 0.293671 0.211124
head -3.34657 0.159302 0.142233
rclavicle 3.67752e-015 -7.95139e-016
rhumerus -42.567 16.6637 -90.6368
rradius 90.5893
rwrist -1.41066
rhand -33.5863 33.5751
rfingers 7.12502
rthumb -6.78017 3.70364
lclavicle 3.67752e-015 -7.95139e-016
lhumerus -49.179 -9.75544 93.1682
lradius 109.325
lwrist 27.0304
lhand -39.4585 7.93152
lfingers 7.12502
lthumb -12.4457 37.541
rfemur 3.47705 1.58365 28.8404
rtibia 82.0504
rfoot 25.903 -12.3041
rtoes 21.2449
lfemur -29.0228 2.612 -18.3304
ltibia 33.1982
lfoot -2.91904 -4.92093
ltoes -6.66204
3
root 0.0522549 17.7574 -29.6766 3.55381 0.143059 -4.40369
lowerback 17.1766 -0.260743 1.88678
upperback 2.18061 0.00982433 0.0343028
thorax -7.28958 -0.0479967 -1.03734
lowerneck -2.21714 0.285124 -0.460451
upperneck -11.5577 0.416179 0.38525
head -3.32363 0.21388 0.195091
rclavicle 3.77691e-015 4.37326e-015
rhumerus -42.6273 15.5789 -90.1874
rradius 88.7385
rwrist -0.831343
rhand -33.5127 33.1437
rfingers 7.12502
rthumb -6.70917 3.26995
lclavicle 3.77691e-015 4.37326e-015
lhumerus -46.6781 -10.54 92.7746
lradius 109.777
lwrist 27.2326
lhand -39.6488 7.4452
lfingers 7.12502
lthumb -12.6292 37.0434
rfemur 1.37073 -0.315504 27.5221
rtibia 86.6765
rfoot 24.1484 -12.5916
rtoes 22.0385
lfemur -28.3044 1.81241 -19.0951
ltibia 36.0057
lfoot -5.72895 -5.07891
ltoes -3.26119
4
root 0.0729292 17.6372 -29.1915 3.01921 0.709889 -3.99589
lowerback 17.6729 -0.675432 1.70608
upperback 2.34869 -0.57619 -0.165697
thorax -7.39847 -0.328233 -1.01115
lowerneck -1.66432 0.448289 -0.450584
upperneck -12.0528 0.648023 0.51764
head -3.60234 0.322867 0.230531
rclavicle 3.97569e-016 1.51076e-014
rhumerus -43.2934 14.323 -89.8424
rradius 87.2076
rwrist -0.291249
rhand -33.2099 34.151
rfingers 7.12502
rthumb -6.41687 4.26822
lclavicle 3.97569e-016 1.51076e-014
lhumerus -44.5141 -11.1085 92.3248
lradius 110.408
lwrist 27.3831
lhand -38.7269 6.89012
lfingers 7.12502
lthumb -11.7403 36.5411
rfemur -0.853773 -1.76809 26.3215
rtibia 91.1207
rfoot 22.534 -12.2734
rtoes 22.3237
lfemur -27.7477 1.23012 -19.7808
ltibia 38.497
lfoot -8.22889 -4.53007
ltoes -4.00272
5
root 0.077503 17.5221 -28.7299 2.48583 1.20475 -3.24862
lowerback 18.9461 -0.889937 0.751224
upperback 2.24204 -1.0361 -0.256011
thorax -8.20877 -0.525232 -0.439422
lowerneck -1.12708 0.532658 -0.614747
upperneck -12.5731 0.766664 0.605719
head -3.89142 0.3843 0.28398
rclavicle 2.78299e-015 -2.38542e-015
rhumerus -44.1532 13.0583 -89.1753
rradius 85.6019
rwrist 0.243118
rhand -33.5139 35.0898
rfingers 7.12502
rthumb -6.71037 5.2161
lclavicle 2.78299e-015 -2.38542e-015
lhumerus -42.2008 -11.7602 92.1654
lradius 110.734
lwrist 27.376
lhand -37.7836 6.82357
lfingers 7.12502
lthumb -10.8306 36.5243
rfemur -3.23727 -3.09092 24.7864
rtibia 95.3774
rfoot 21.3805 -11.8033
rtoes 24.7729
lfemur -26.4338 0.428691 -20.6731
ltibia 40.5657
lfoot -10.9551 -3.29247
ltoes -6.82613
6
root 0.0802942 17.4258 -28.2606 2.20731 1.40109 -1.80291
lowerback 19.5745 -0.857163 -0.931305
upperback 2.40776 -1.37071 -0.551737
thorax -8.3431 -0.634442 0.293187
lowerneck -1.23885 0.604934 -0.878202
upperneck -12.9597 0.884617 0.835662
head -4.01293 0.445727 0.403075
rclavicle 6.55989e-015 8.74653e-015
rhumerus -44.431 11.6081 -88.3359
rradius 83.8152
rwrist 1.0927
rhand -34.654 35.1855
rfingers 7.12502
rthumb -7.81078 5.34975
lclavicle 6.55989e-015 8.74653e-015
lhumerus -39.0637 -12.8151 91.8634
lradius 110.711
lwrist 26.9173
lhand -38.0637 7.55526
lfingers 7.12502
lthumb -11.1008 37.2417
rfemur -5.98482 -4.11157 22.3787
rtibia 99.4168
rfoot 20.2925 -11.0165
rtoes 26.7005
lfemur -25.1285 -0.0185844 -22.4215
ltibia 42.0172
lfoot -13.058 -2.11767
ltoes -9.74982
7
root 0.0888427 17.346 -27.7772 2.21653 1.14346 0.159403
lowerback 19.4716 -0.672744 -3.0534
upperback 2.49092 -1.61457 -1.02146
thorax -8.14899 -0.693836 1.05261
lowerneck -0.683529 0.755568 -1.37495
upperneck -13.3751 1.10903 1.17524
head -4.28129 0.564868 0.595907
rclavicle 2.127e-014 1.74931e-014
rhumerus -45.0557 10.2506 -87.5254
rradius 82.1623
rwrist 1.90138
rhand -35.2196 35.7626
rfingers 7.12502
rthumb -8.35672 5.94791
lclavicle 2.127e-014 1.74931e-014
lhumerus -36.3093 -13.7364 91.5275
lradius 110.915
lwrist 26.4719
lhand -38.6022 8.43694
lfingers 7.12502
lthumb -11.62 38.0948
rfemur -9.12078 -4.6831 19.2869
rtibia 103.118
rfoot 19.3505 -9.81538
rtoes 29.5881
lfemur -23.7532 -0.279133 -24.7225
ltibia 43.0634
lfoot -15.0605 -0.882603
ltoes -12.2956
